<svg xmlns="http://www.w3.org/2000/svg" width="42" height="40" viewBox="0 0 42 40" fill="none">
<g clip-path="url(#clip0_2467_798)">
<path d="M20.7018 2.16985C10.5252 2.16985 2.246 10.1681 2.246 20C2.246 29.8319 10.5252 37.8302 20.7018 37.8302C30.8784 37.8302 39.1575 29.8319 39.1575 20C39.1575 10.1681 30.8784 2.16985 20.7018 2.16985ZM20.7018 40C9.28676 40 0 31.028 0 20C0 8.97199 9.28676 0 20.7018 0C32.1167 0 41.4035 8.97199 41.4035 20C41.4035 31.028 32.1167 40 20.7018 40Z" fill="#FBFBFB"/>
<path d="M23.7751 13.5638H15.8332L15.6405 17.1555C15.9516 17.0673 16.3228 17.006 16.754 16.9696C17.184 16.935 17.5736 16.9172 17.9222 16.9172C18.8745 16.9172 19.7584 17.0495 20.5739 17.3147C21.3887 17.5805 22.0989 17.9648 22.7033 18.4702C23.3082 18.9744 23.7799 19.5942 24.1189 20.329C24.4574 21.0632 24.6269 22.3784 24.6269 23.3343C24.6269 24.379 24.4389 25.3123 24.0636 26.1353C23.6883 26.9583 23.1791 27.6532 22.5385 28.2199C21.8973 28.7867 21.1467 29.2199 20.2848 29.5209C19.4235 29.8218 18.5075 29.972 17.5368 29.972C15.9058 29.972 14.5324 29.6043 13.4141 28.8707C12.2971 28.1365 11.6029 26.7795 11.0902 25.5048L13.9637 24.913C14.2385 25.6567 14.6965 26.1359 15.3383 26.5876C15.9795 27.0387 16.7391 27.2646 17.6194 27.2646C18.1143 27.2646 18.5812 27.1847 19.0202 27.0256C19.4604 26.8665 19.8446 26.6365 20.1753 26.3355C20.5049 26.0346 20.8873 25.6585 21.08 25.2074C21.2722 24.7557 21.3685 24.2473 21.3685 23.6806C21.3685 22.9547 21.24 21.8826 20.9831 21.4053C20.7267 20.9273 20.2711 20.5423 19.8583 20.2503C19.4467 19.9583 18.9827 19.7545 18.4706 19.6401C17.9573 19.5244 17.4356 19.4672 16.9039 19.4672C16.5375 19.4672 16.1485 19.4935 15.7363 19.5465C15.3235 19.5995 14.9208 19.6752 14.527 19.7724C14.1333 19.8695 13.7478 19.9803 13.3731 20.1043C12.9978 20.2283 12.6629 20.3612 12.3696 20.5018L12.6992 10.6973H23.7585L23.7739 13.5644L23.7751 13.5638Z" fill="#FBFBFB"/>
<path d="M27.7752 15.4851C27.7752 15.4851 27.5854 15.4601 25.5012 15.6252V16.4535C25.5012 16.4535 26.7735 18.9571 26.7735 20.7318C26.7735 22.5066 26.9234 27.537 26.9234 27.537C26.9234 27.537 26.899 28.0256 27.0245 28.4148C27.1048 28.6639 27.4623 29.1127 27.6211 29.4029C27.686 29.5221 27.8638 29.5221 27.9286 29.4029C28.0875 29.1127 28.4449 28.6639 28.5252 28.4148C28.6507 28.0256 28.6263 27.537 28.6263 27.537C28.6263 27.537 28.7762 22.506 28.7762 20.7318C28.7762 18.9577 30.0485 16.4535 30.0485 16.4535V15.6252C27.9643 15.4601 27.7746 15.4851 27.7746 15.4851" fill="#FBFBFB"/>
<path d="M29.5846 12.4082C29.5846 13.3736 28.7745 14.1561 27.7752 14.1561C26.7759 14.1561 25.9652 13.373 25.9652 12.4082C25.9652 11.4434 26.7753 10.6603 27.7752 10.6603C28.7751 10.6603 29.5846 11.4434 29.5846 12.4082Z" fill="#FBFBFB"/>
</g>
<defs>
<clipPath id="clip0_2467_798">
<rect width="41.4035" height="40" fill="white"/>
</clipPath>
</defs>
</svg>